<svg width="55" height="55" viewBox="0 0 55 55" fill="none" xmlns="http://www.w3.org/2000/svg">
<circle cx="27.5" cy="27.5" r="25.5" fill="#C9A788" stroke="white" stroke-width="4"/>
<path style="transform: translate(19px, 19px);" d="M10.4984 2.85488L1.14478 12.2092C1.09768 12.2564 1.06411 12.3154 1.04758 12.38L0.0107855 16.5414C-0.00446307 16.6031 -0.00352859 16.6678 0.0134987 16.7291C0.0305259 16.7904 0.0630705 16.8462 0.107989 16.8913C0.176983 16.96 0.270398 16.9987 0.367808 16.9987C0.397857 16.9987 0.427792 16.995 0.456934 16.9877L4.61828 15.9508C4.68299 15.9345 4.74205 15.901 4.78915 15.8537L14.1436 6.50005L10.4984 2.85488ZM16.4609 1.57943L15.4197 0.538259C14.7238 -0.157629 13.5109 -0.156939 12.8158 0.538259L11.5404 1.81371L15.1855 5.45873L16.4609 4.18332C16.8085 3.83586 16.9999 3.37335 16.9999 2.88146C16.9999 2.38958 16.8085 1.92707 16.4609 1.57943Z" fill="white"/>
</svg>
