<svg width="22" height="22" viewBox="5 5 24 24" fill="none" xmlns="http://www.w3.org/2000/svg">
<circle cx="17" cy="17" r="9.5" fill="black" stroke="#C9A788"/>
<g clip-path="url(#clip0_344_9020)">
<path d="M19.0833 13.25C19.1927 13.1406 19.3226 13.0538 19.4656 12.9946C19.6086 12.9353 19.7618 12.9048 19.9166 12.9048C20.0713 12.9048 20.2246 12.9353 20.3676 12.9946C20.5106 13.0538 20.6405 13.1406 20.7499 13.25C20.8594 13.3595 20.9462 13.4894 21.0054 13.6324C21.0646 13.7753 21.0951 13.9286 21.0951 14.0834C21.0951 14.2381 21.0646 14.3914 21.0054 14.5344C20.9462 14.6773 20.8594 14.8073 20.7499 14.9167L15.1249 20.5417L12.8333 21.1667L13.4583 18.875L19.0833 13.25Z" stroke="white" stroke-linecap="round" stroke-linejoin="round"/>
</g>
<defs>
<clipPath id="clip0_344_9020">
<rect width="10" height="10" fill="white" transform="translate(12 12)"/>
</clipPath>
</defs>
</svg>
