<svg width="238" height="68" viewBox="0 0 238 68" fill="none" xmlns="http://www.w3.org/2000/svg">
    <g clip-path="url(#clip0_421_5136)">
        <path fill-rule="evenodd" clip-rule="evenodd" d="M15.695 19.4194C14.974 20.349 14.2617 21.2674 13.2162 21.8737L13.2296 21.8272C12.0516 19.9408 10.6275 19.9607 9.52276 21.8472C8.51787 23.561 8.7641 25.5139 10.1417 26.9553C11.1665 28.0314 12.4509 28.6757 13.8551 29.061C14.8537 29.3365 15.8622 29.57 16.8715 29.8037C17.5169 29.9532 18.1627 30.1027 18.8064 30.2633C22.1937 31.1069 24.0172 33.7108 23.7709 37.3177C23.753 37.3177 23.7311 37.3208 23.7097 37.3238C23.6676 37.3296 23.6267 37.3353 23.6179 37.3177C23.5173 37.1604 23.4212 36.9997 23.325 36.8389C23.1856 36.6059 23.046 36.3726 22.8925 36.1486C21.2155 33.7241 19.2256 31.6583 16.1976 31.0339C14.3143 30.6419 12.4642 30.7881 11.1399 32.4753C9.80227 34.1824 10.1683 35.9361 11.1133 37.6698C11.2409 37.907 11.4224 38.1573 11.6023 38.4055C11.9667 38.908 12.3249 39.402 12.218 39.7622C12.0749 40.2496 11.5136 40.3463 10.9268 40.4474C10.586 40.5061 10.2365 40.5663 9.95533 40.7054C8.30491 41.5158 6.65449 42.3727 6.4748 44.4585C6.28847 46.6638 7.55956 48.1119 9.31646 49.2146C10.9536 50.2442 12.7637 50.6959 14.9931 50.7357C14.8484 50.8641 14.7132 50.9838 14.5856 51.0968C14.0793 51.5451 13.6934 51.8868 13.3161 52.2369C12.2446 53.22 11.2863 54.2762 10.7872 55.6844C10.0019 57.923 11.2597 60.0287 13.6222 60.3209C14.2744 60.4007 14.9731 60.3741 15.612 60.2213C16.4173 60.0287 16.557 60.2612 16.557 61.0251C16.5504 62.5794 16.75 64.1138 17.482 65.5154C19.0526 68.5444 22.6795 68.8234 24.6561 66.0468C25.6876 64.5855 26.1468 62.9049 26.3331 61.138C26.4133 60.3867 26.4964 59.6384 26.5865 58.8273C26.6311 58.4265 26.6773 58.0103 26.7257 57.5709C26.9343 57.8535 27.1096 58.0921 27.267 58.3065C27.4611 58.5708 27.6281 58.7982 27.7972 59.0256C29.3278 61.1048 31.1912 62.7721 33.7134 63.5227C36.4952 64.353 38.4517 62.4665 37.7995 59.65C37.733 59.3597 37.6614 59.0694 37.5845 58.7581C37.5383 58.5708 37.4902 58.3759 37.4402 58.1687L37.4945 58.1771C38.8498 58.3863 40.0518 58.5718 41.2667 58.4145C43.2898 58.1555 44.2016 56.734 43.6492 54.781C43.4495 54.0769 43.1767 53.3795 42.6643 52.8813C42.5568 52.776 42.4494 52.6706 42.342 52.5652C40.0285 50.294 37.7043 48.0121 34.2192 47.5805L34.1961 47.5775C33.8442 47.5321 33.4877 47.4862 33.2076 47.1222C33.6131 47.0187 34.0194 46.9198 34.4251 46.821C36.3633 46.3492 38.2891 45.8804 40.0555 44.9301C41.3799 44.2194 42.5445 43.3359 42.4846 41.6686C42.4247 39.8818 41.147 38.9916 39.6762 38.3274C38.363 37.7379 36.9609 37.699 35.4585 37.6574C35.3696 37.6549 35.2804 37.6524 35.1908 37.6499C35.2592 37.4565 35.326 37.2749 35.3901 37.1004C35.5134 36.7653 35.6269 36.4565 35.7232 36.142C36.4685 33.7307 35.1841 32.0236 32.6752 32.0568C31.2577 32.0767 30.0865 32.6679 28.9951 33.485C28.5777 33.8007 28.169 34.1338 27.746 34.4786C27.5283 34.656 27.3068 34.8366 27.0784 35.0194C26.0935 30.2301 23.4515 27.593 18.833 26.5767C18.4729 26.4974 18.1102 26.4249 17.7472 26.3523C16.3458 26.072 14.9385 25.7906 13.6488 25.1153C12.9833 24.7699 12.3378 24.4179 12.7837 23.3949C13.6288 24.4179 14.7136 25.4408 15.8849 24.3913C18.1342 22.3786 20.3237 20.2397 21.7811 17.5361C22.3268 16.5331 22.3867 15.3441 21.3885 14.5802C20.6804 14.0341 20.8752 13.7365 21.2259 13.2006C21.2378 13.1825 21.2499 13.1641 21.262 13.1454C22.6862 10.9932 23.558 8.62181 23.3317 6.02457C23.0589 2.87599 20.7629 1.82646 18.0876 3.48711C17.3853 3.92237 16.7881 4.48271 16.1612 5.07099C15.707 5.49721 15.2371 5.93809 14.7003 6.3567C14.655 5.87402 14.6263 5.40849 14.5984 4.95598C14.536 3.94506 14.4776 2.99914 14.2478 2.07224C14.0148 1.10907 13.5756 0.331885 12.5574 0.0728252C11.486 -0.192878 10.6075 0.212319 10.0086 1.09578C9.43625 1.94603 8.91716 2.83613 8.44466 3.74617C8.07688 4.45683 7.74585 5.18416 7.39003 5.96596C7.24365 6.2876 7.09306 6.61846 6.93399 6.96117C6.87475 6.81925 6.82395 6.70429 6.78068 6.60638C6.70244 6.42932 6.64884 6.30803 6.61456 6.18399C6.24854 4.86876 5.64959 3.70631 4.10565 3.63989C2.55506 3.57346 1.89622 4.72263 1.36382 5.95814C0.585198 7.77821 0.219178 9.70455 0.0860792 11.6508C-0.186773 15.6297 0.03284 19.4957 3.0941 22.5845C3.60653 23.1026 4.13893 23.5942 4.89759 23.6872C5.68287 23.7868 6.36167 23.5277 6.70773 22.8103C7.05378 22.0863 6.86745 21.4353 6.24188 20.8774C3.67308 18.579 2.78132 14.9788 3.91931 11.2788C4.02998 11.5881 4.13029 11.8756 4.22599 12.1498C4.36049 12.5353 4.48588 12.8946 4.61808 13.2517C4.94417 14.1351 5.52981 14.7994 6.51473 14.8193C7.54625 14.8393 8.25832 14.2215 8.631 13.2915C8.78858 12.9017 8.91089 12.4961 9.03333 12.09C9.14876 11.7072 9.26431 11.324 9.40963 10.9534C9.54122 10.6145 9.65533 10.2669 9.76886 9.92109C10.0515 9.06018 10.3306 8.2101 10.8671 7.53243C10.8671 8.06138 10.8648 8.59033 10.8626 9.11952C10.8582 10.1786 10.8537 11.2387 10.8671 12.3018C10.8737 13.1454 11.273 13.7765 12.0916 14.082C12.9434 14.4009 13.6089 14.0355 14.1413 13.4111C14.3304 13.1888 14.4797 12.9373 14.6294 12.6851C14.7168 12.538 14.8043 12.3906 14.8999 12.2487C16.2243 10.2692 17.6817 8.40925 19.7514 6.80175C19.4186 10.3887 17.2757 12.6539 15.1329 14.8658C13.1164 16.945 13.2761 18.0078 15.998 19.0307C15.8962 19.1599 15.7955 19.2898 15.695 19.4194ZM16.5512 47.112C16.7766 47.1084 17.0067 47.1047 17.2418 47.1022L17.2551 47.0955C18.3465 47.1154 19.977 46.9627 21.6075 46.7036C22.9651 46.491 23.1581 45.7604 22.8652 44.6577C22.2197 42.2132 21.2747 39.8817 19.7707 37.8358C18.666 36.3279 17.3417 35.0326 15.4051 34.634C14.9593 34.5411 14.3867 34.4217 14.0807 34.8001C13.7702 35.1844 14.0624 35.6324 14.2976 35.9928L14.3469 36.0688C14.8793 36.9014 15.4354 37.7221 15.9915 38.5429C16.2695 38.9532 16.5475 39.3636 16.8226 39.7754L16.8574 39.8279C17.3923 40.6344 17.9341 41.4513 17.3283 42.459C16.756 43.4155 15.8443 43.6547 14.7995 43.5417C13.5949 43.4089 12.4436 43.6679 11.3389 44.113C11.2733 44.1396 11.2041 44.1652 11.1335 44.1913C10.7098 44.348 10.237 44.5229 10.2142 45.0297C10.1902 45.5269 10.6262 45.808 11.0293 46.0679C11.0732 46.0962 11.1167 46.1242 11.1592 46.1523C12.7002 47.1737 14.4155 47.1462 16.5512 47.112ZM14.4201 56.7737C15.5787 54.4025 19.698 51.5127 23.3244 50.45C23.5604 51.3499 23.455 52.2364 23.3499 53.1191C23.3069 53.4808 23.2639 53.8419 23.2446 54.2031C23.2218 54.6019 23.201 55.0009 23.1801 55.3998C23.067 57.5654 22.9539 59.7307 22.5325 61.8619C22.5169 61.941 22.5012 62.0244 22.4851 62.1107C22.3154 63.0166 22.0863 64.2391 21.1749 64.1603C20.3543 64.0893 20.2892 63.0713 20.2329 62.1909C20.2207 62.0003 20.2089 61.8161 20.19 61.6494C20.0502 60.4139 20.2565 59.1983 20.6691 58.0159C20.9952 57.0926 21.0351 56.1626 20.17 55.4851C19.3714 54.8673 18.5462 55.0799 17.7143 55.5183C17.6364 55.5593 17.5585 55.6006 17.4805 55.6419C16.5741 56.1224 15.6484 56.6137 14.4201 56.7737ZM39.263 54.7212C37.8901 54.6776 36.7805 54.1842 35.6818 53.6957L35.463 53.5986C35.314 53.5323 35.1659 53.4645 35.0178 53.3967C34.5573 53.1859 34.098 52.9756 33.6196 52.8148C32.6946 52.5092 31.8693 52.7483 31.2704 53.5122C30.6249 54.3359 30.8711 55.1529 31.4301 55.9168C31.6779 56.2583 31.9459 56.5859 32.2143 56.9138C32.8541 57.6956 33.4954 58.4792 33.8658 59.4573C31.1173 58.6536 27.9762 53.9174 27.2442 49.2875C28.5567 49.8448 29.9388 50.1902 31.3144 50.534C34.2355 51.2641 37.1275 51.987 39.263 54.7145V54.7212ZM30.7613 37.7228C31.0508 37.3027 31.3403 36.8825 31.6298 36.4607V36.4541C28.6816 38.1347 26.9979 40.6655 26.5521 44.0067C26.4389 44.8702 26.7384 44.9632 27.4571 44.7839C28.5847 44.5048 29.715 44.2357 30.845 43.9666C32.1622 43.653 33.48 43.3392 34.7909 43.0103L35.0072 42.9567C36.057 42.6971 37.1392 42.4295 38.3845 41.6154C38.1138 41.578 37.8809 41.5443 37.6732 41.5142C37.2527 41.4534 36.935 41.4074 36.6143 41.3763C35.3176 41.2474 34.1203 41.629 32.9225 42.0107C32.7005 42.0814 32.478 42.1523 32.2553 42.2199C31.2438 42.5254 30.4053 42.2199 29.7997 41.4161C29.2007 40.619 29.3471 39.7754 29.8928 38.9849C30.1823 38.5631 30.4718 38.143 30.7613 37.7228Z" fill="white"/>
        <path d="M55.4813 29.8917L55.4015 44.0204L65.8031 29.8917H72.8839L60.7387 45.7674L73.1901 64.5858H65.8763L56.1668 49.0289L55.3948 49.4873L55.4747 64.5792H49.6317V29.8917H55.4813Z" fill="white"/>
        <path d="M76.0184 29.8917H81.8215V58.1957H90.4862V64.5925H76.0184V29.8917Z" fill="white"/>
        <path d="M111.023 29.8917V35.8766H99.883V43.0108H110.597V48.9027H99.883V58.6142H111.103V64.5991H94.0865V29.8917H111.03H111.023Z" fill="white"/>
        <path d="M133.531 29.8918V35.8767H122.39V43.0108H133.105V48.9028H122.39V58.6142H133.61V64.5992H116.594V29.8918H133.537H133.531Z" fill="white"/>
        <path d="M136.239 29.8917H142.428L149.156 52.3967L155.811 29.8917H158.4L164.822 52.3967L171.936 29.8917H178.165L166.446 64.5925H163.198L157.049 43.0573L150.747 64.5925H147.539L136.245 29.8917H136.239Z" fill="white"/>
        <path d="M181.18 29.8917H186.983V64.5925H181.18V29.8917Z" fill="white"/>
        <path d="M190.929 57.7772L194.915 54.2367C195.66 55.9571 196.552 57.2192 197.583 58.0363C198.615 58.8466 199.76 59.2585 201.024 59.2585C202.288 59.2585 203.214 58.8666 203.886 58.0828C204.558 57.2989 204.891 56.2627 204.891 54.974C204.891 54.3297 204.811 53.7518 204.658 53.247C204.505 52.7421 204.232 52.2572 203.846 51.7989C203.46 51.3405 202.941 50.8756 202.302 50.4172C201.656 49.9589 200.844 49.4806 199.866 48.9891C198.681 48.378 197.617 47.7536 196.678 47.1225C195.74 46.4915 194.941 45.7874 194.303 45.0035C193.657 44.2197 193.165 43.3296 192.812 42.3332C192.466 41.3368 192.286 40.181 192.286 38.8592C192.286 37.5373 192.512 36.2088 192.965 35.0397C193.417 33.8706 194.05 32.8609 194.862 32.004C195.673 31.1471 196.638 30.4696 197.763 29.978C198.888 29.4865 200.106 29.2407 201.417 29.2407C203.453 29.2407 205.203 29.7256 206.661 30.6888C208.118 31.652 209.309 32.9672 210.241 34.6212L206.528 38.5802C205.935 37.5041 205.243 36.6804 204.458 36.0958C203.673 35.5113 202.734 35.219 201.656 35.219C200.578 35.219 199.786 35.5511 199.141 36.2088C198.495 36.8664 198.176 37.6768 198.176 38.6267C198.176 39.085 198.256 39.5168 198.429 39.9153C198.595 40.3139 198.881 40.7124 199.28 41.111C199.68 41.5095 200.212 41.9081 200.884 42.3066C201.556 42.7052 202.382 43.1635 203.36 43.6883C204.651 44.3326 205.762 45.0168 206.707 45.7342C207.646 46.4583 208.424 47.2554 209.03 48.1255C209.636 49.0024 210.088 49.9921 210.381 51.0948C210.674 52.1974 210.827 53.4595 210.827 54.8677C210.827 56.4354 210.587 57.8503 210.108 59.1256C209.629 60.401 208.97 61.4904 208.118 62.3938C207.266 63.2972 206.261 63.9946 205.104 64.4862C203.946 64.9777 202.681 65.2235 201.31 65.2235C200.046 65.2235 198.868 65.0375 197.77 64.6722C196.672 64.3068 195.693 63.7887 194.828 63.1311C193.963 62.4735 193.204 61.6897 192.546 60.7863C191.887 59.8829 191.354 58.8799 190.942 57.7706L190.929 57.7772Z" fill="white"/>
        <path d="M221.096 29.8917V43.0041H232.236V29.8917H237.999V64.5925H232.236V49.3611H221.096V64.5925H215.293V29.8917H221.096Z" fill="white"/>
    </g>
    <defs>
        <clipPath id="clip0_421_5136">
        <rect width="238" height="68" fill="white"/>
        </clipPath>
    </defs>
</svg>