<svg width="32" height="32" viewBox="0 0 32 32" fill="none" xmlns="http://www.w3.org/2000/svg">
    <g clip-path="url(#clip0_63_505)">
        <path d="M9.69362 9.75052C9.69362 11.9905 8.15618 13.8062 6.25986 13.8062C4.36354 13.8062 2.82642 11.9905 2.82642 9.75052C2.82642 7.51068 4.36354 5.69531 6.25986 5.69531C8.15618 5.69531 9.69362 7.51084 9.69362 9.75052Z" fill="#F5E7DB"/>
        <path d="M10.1737 16.9022C10.4216 16.751 10.6962 16.6526 10.9803 16.6055C10.4034 15.7915 9.99455 14.9182 9.75839 13.8731C9.69375 13.4911 9.17087 13.4463 8.78207 13.7631C8.05487 14.3561 7.20623 14.7529 6.25983 14.7529C5.29503 14.7529 4.40751 14.3691 3.69583 13.7267C3.46879 13.5214 3.13422 13.4905 2.8731 13.65C1.52206 14.4751 0.499507 15.7851 0.0534266 17.3403C-0.0662534 17.7574 0.0177483 18.2076 0.279188 18.5547C0.541108 18.9012 0.949909 19.1055 1.38415 19.1055H7.57119C8.31151 18.2513 9.18559 17.5055 10.1737 16.9022Z" fill="#F5E7DB"/>
        <path d="M22.3058 9.75052C22.3058 11.9905 23.8434 13.8062 25.7397 13.8062C27.636 13.8062 29.1733 11.9905 29.1733 9.75052C29.1733 7.51068 27.636 5.69531 25.7397 5.69531C23.8434 5.69531 22.3058 7.51084 22.3058 9.75052Z" fill="#F5E7DB"/>
        <path d="M21.826 16.9022C21.5782 16.751 21.3038 16.6526 21.0197 16.6055C21.5965 15.7915 22.0052 14.9182 22.2416 13.8731C22.3062 13.4911 22.8294 13.4463 23.2181 13.7631C23.9453 14.3561 24.7939 14.7529 25.7403 14.7529C26.7051 14.7529 27.5924 14.3691 28.3041 13.7267C28.5313 13.5214 28.8657 13.4905 29.127 13.65C30.4779 14.4751 31.5004 15.7851 31.9467 17.3403C32.0664 17.7575 31.9822 18.2076 31.7208 18.5547C31.4592 18.9012 31.05 19.1055 30.6158 19.1055H24.4289C23.6883 18.2513 22.8144 17.5055 21.826 16.9022Z" fill="#F5E7DB"/>
        <path d="M25.3554 23.5919C24.6837 21.2473 23.1602 19.2649 21.1431 17.9934C20.7452 17.7427 20.2287 17.7833 19.8757 18.0943C18.7933 19.0476 17.454 19.6153 15.9996 19.6153C14.5167 19.6153 13.153 19.0255 12.0594 18.0383C11.7105 17.7231 11.1965 17.6756 10.7953 17.9209C8.71895 19.1889 7.14726 21.2017 6.46214 23.5921C6.27798 24.2334 6.4071 24.9247 6.8087 25.4582C7.21126 25.9908 7.83958 26.3046 8.5071 26.3046H23.3105C23.9781 26.3046 24.607 25.9919 25.0093 25.4582C25.4111 24.9246 25.5396 24.2338 25.3554 23.5919Z" fill="#F5E7DB"/>
        <path d="M21.2761 11.9275C21.2761 15.3694 18.9134 18.1603 15.9993 18.1603C13.0852 18.1603 10.7227 15.3696 10.7227 11.9275C10.7227 8.48508 13.0851 5.69531 15.9993 5.69531C18.9135 5.69531 21.2761 8.48508 21.2761 11.9275Z" fill="#F5E7DB"/>
    </g>
    <defs>
        <clipPath id="clip0_63_505">
        <rect width="32" height="32" fill="white"/>
        </clipPath>
    </defs>
</svg>